<svg xmlns="http://www.w3.org/2000/svg" width="100.001" height="100.002" viewBox="0 0 100.001 100.002">
  <path id="Subtraction_4" data-name="Subtraction 4" d="M-5870,100h-100V0h100V100Zm-49.9-45.141h0a7.964,7.964,0,0,0,.749,3.434,6.794,6.794,0,0,0,1.921,2.385,8.1,8.1,0,0,0,2.819,1.38,12.919,12.919,0,0,0,3.451.449,13.115,13.115,0,0,0,3.12-.375,8.436,8.436,0,0,0,2.729-1.185,6.259,6.259,0,0,0,1.936-2.084,6.1,6.1,0,0,0,.734-3.076,5.746,5.746,0,0,0-.254-1.68,5.418,5.418,0,0,0-.781-1.575,5.756,5.756,0,0,0-1.3-1.3,6.3,6.3,0,0,0-1.831-.9c-.323-.092-.819-.225-1.4-.375l-2-.526c-.667-.176-1.287-.343-1.844-.494-.533-.145-.863-.235-.946-.255a4.585,4.585,0,0,1-1.844-.975,2.307,2.307,0,0,1-.706-1.784,2.319,2.319,0,0,1,.376-1.35,2.779,2.779,0,0,1,.944-.856,4.324,4.324,0,0,1,1.26-.449,7.066,7.066,0,0,1,1.35-.136,5.632,5.632,0,0,1,3.211.856,3.636,3.636,0,0,1,1.41,2.925h3.75a6.362,6.362,0,0,0-.661-2.955,6.465,6.465,0,0,0-1.785-2.146,7.861,7.861,0,0,0-2.61-1.305,11.291,11.291,0,0,0-3.165-.434,11.162,11.162,0,0,0-2.851.375,7.9,7.9,0,0,0-2.52,1.155,6.03,6.03,0,0,0-1.785,1.966,5.587,5.587,0,0,0-.675,2.8,6.17,6.17,0,0,0,.225,1.65,4.624,4.624,0,0,0,.766,1.53,5.465,5.465,0,0,0,1.455,1.3,8.013,8.013,0,0,0,2.3.945c1.474.4,2.731.727,3.735.975a25.486,25.486,0,0,1,2.655.8,3.173,3.173,0,0,1,1.215.824,2.573,2.573,0,0,1,.554,1.816,3.1,3.1,0,0,1-.24,1.184,2.662,2.662,0,0,1-.779,1.035,4.286,4.286,0,0,1-1.411.736,6.816,6.816,0,0,1-2.1.285,8.417,8.417,0,0,1-2.116-.255,5.03,5.03,0,0,1-1.724-.811,3.814,3.814,0,0,1-1.17-1.425,4.811,4.811,0,0,1-.419-2.1Zm-16.71-.361v1.14a9.962,9.962,0,0,0,.359,2.73,5.779,5.779,0,0,0,1.141,2.175,5.426,5.426,0,0,0,1.98,1.44,7.26,7.26,0,0,0,2.91.524,9.168,9.168,0,0,0,3.705-.629,5.089,5.089,0,0,0,2.129-1.68,5.974,5.974,0,0,0,.975-2.37,15.29,15.29,0,0,0,.24-2.73V40.581h-3.75V55.31a11.678,11.678,0,0,1-.12,1.769,3.251,3.251,0,0,1-.464,1.305,2.189,2.189,0,0,1-.93.8,3.57,3.57,0,0,1-1.485.27,2.517,2.517,0,0,1-2.326-1.005,5.482,5.482,0,0,1-.614-2.835V54.5Z" transform="translate(5970)" fill="#77ffda"/>
</svg>
