<svg xmlns="http://www.w3.org/2000/svg" width="100.001" height="100.002" viewBox="0 0 100.001 100.002">
  <path id="Subtraction_5" data-name="Subtraction 5" d="M-5870,100h-100V0h100V100Zm-22.6-60.422V61h14.64V57.76h-10.89V39.58Zm-8.131,4.89h.062V61h3.569V39.58h-5.22l-5.759,16.77h-.06l-5.911-16.77h-5.28V61h3.57V44.47h.06l5.941,16.53h3.089l5.938-16.53Zm-38.369-4.89v3.241h6.78V61h3.75V42.821h6.81V39.58Zm-15.959,11.76h9.749V61h3.75V39.58h-3.75V48.1h-9.749V39.58h-3.75V61h3.75v-9.66Z" transform="translate(5970)" fill="#77ffda"/>
</svg>
