<svg xmlns="http://www.w3.org/2000/svg" width="100.001" height="100.002" viewBox="0 0 100.001 100.002">
  <path id="Subtraction_3" data-name="Subtraction 3" d="M-5870,100h-100V0h100V100Zm-30.451-45.141h0a7.968,7.968,0,0,0,.751,3.434,6.758,6.758,0,0,0,1.92,2.385,8.085,8.085,0,0,0,2.82,1.38,12.892,12.892,0,0,0,3.449.449,13.111,13.111,0,0,0,3.121-.375,8.443,8.443,0,0,0,2.73-1.185,6.265,6.265,0,0,0,1.935-2.084,6.1,6.1,0,0,0,.735-3.076,5.817,5.817,0,0,0-.255-1.68,5.407,5.407,0,0,0-.78-1.575,5.791,5.791,0,0,0-1.305-1.3,6.261,6.261,0,0,0-1.831-.9c-.214-.061-.631-.176-1.4-.375l-1.994-.526c-.654-.173-1.274-.339-1.845-.494-.6-.163-.872-.237-.945-.255a4.6,4.6,0,0,1-1.846-.975,2.309,2.309,0,0,1-.7-1.784,2.316,2.316,0,0,1,.375-1.35,2.762,2.762,0,0,1,.945-.856,4.32,4.32,0,0,1,1.26-.449,7.066,7.066,0,0,1,1.35-.136,5.622,5.622,0,0,1,3.209.856,3.632,3.632,0,0,1,1.411,2.925h3.749a6.373,6.373,0,0,0-.659-2.955,6.456,6.456,0,0,0-1.786-2.146,7.841,7.841,0,0,0-2.61-1.305,11.281,11.281,0,0,0-3.165-.434,11.14,11.14,0,0,0-2.85.375,7.89,7.89,0,0,0-2.52,1.155,6.03,6.03,0,0,0-1.785,1.966,5.593,5.593,0,0,0-.676,2.8,6.157,6.157,0,0,0,.225,1.65,4.591,4.591,0,0,0,.766,1.53,5.472,5.472,0,0,0,1.455,1.3,8.013,8.013,0,0,0,2.3.945c1.451.393,2.708.721,3.734.975a25.539,25.539,0,0,1,2.656.8,3.172,3.172,0,0,1,1.215.824,2.571,2.571,0,0,1,.555,1.816,3.1,3.1,0,0,1-.24,1.184,2.67,2.67,0,0,1-.781,1.035,4.277,4.277,0,0,1-1.41.736,6.822,6.822,0,0,1-2.1.285,8.411,8.411,0,0,1-2.114-.255,5.015,5.015,0,0,1-1.725-.811,3.79,3.79,0,0,1-1.17-1.425,4.809,4.809,0,0,1-.421-2.1Zm-19.44,0h0a7.993,7.993,0,0,0,.75,3.434,6.781,6.781,0,0,0,1.919,2.385,8.11,8.11,0,0,0,2.821,1.38,12.907,12.907,0,0,0,3.449.449,13.121,13.121,0,0,0,3.121-.375,8.445,8.445,0,0,0,2.73-1.185,6.26,6.26,0,0,0,1.934-2.084,6.092,6.092,0,0,0,.736-3.076,5.817,5.817,0,0,0-.255-1.68,5.473,5.473,0,0,0-.78-1.575,5.791,5.791,0,0,0-1.305-1.3,6.278,6.278,0,0,0-1.83-.9c-.307-.087-.8-.22-1.4-.375l-.013,0-.366-.1-1.615-.426c-.666-.176-1.287-.343-1.844-.494-.6-.163-.873-.237-.945-.255a4.6,4.6,0,0,1-1.846-.975,2.308,2.308,0,0,1-.7-1.784,2.319,2.319,0,0,1,.375-1.35,2.766,2.766,0,0,1,.946-.856,4.318,4.318,0,0,1,1.26-.449,7.067,7.067,0,0,1,1.35-.136,5.625,5.625,0,0,1,3.209.856,3.633,3.633,0,0,1,1.411,2.925h3.75a6.362,6.362,0,0,0-.661-2.955,6.445,6.445,0,0,0-1.786-2.146,7.852,7.852,0,0,0-2.609-1.305,11.3,11.3,0,0,0-3.166-.434,11.14,11.14,0,0,0-2.85.375,7.892,7.892,0,0,0-2.521,1.155,6.021,6.021,0,0,0-1.784,1.966,5.589,5.589,0,0,0-.676,2.8,6.169,6.169,0,0,0,.225,1.65,4.578,4.578,0,0,0,.766,1.53,5.475,5.475,0,0,0,1.455,1.3,8.013,8.013,0,0,0,2.3.945c1.51.408,2.731.727,3.735.975a25.492,25.492,0,0,1,2.654.8,3.172,3.172,0,0,1,1.216.824,2.578,2.578,0,0,1,.554,1.816,3.1,3.1,0,0,1-.239,1.184,2.662,2.662,0,0,1-.781,1.035,4.278,4.278,0,0,1-1.41.736,6.811,6.811,0,0,1-2.1.285,8.41,8.41,0,0,1-2.115-.255,5.013,5.013,0,0,1-1.725-.811,3.823,3.823,0,0,1-1.171-1.425,4.824,4.824,0,0,1-.42-2.1Zm-17.609-14.28V62h15.63V58.759h-11.88V52.49h10.8V49.43h-10.8V43.82h11.67V40.581Zm-17.219,0V62h14.639V58.759h-10.891V40.581Z" transform="translate(5970)" fill="#77ffda"/>
</svg>
