<svg xmlns="http://www.w3.org/2000/svg" width="100.001" height="100.002" viewBox="0 0 100.001 100.002">
  <path id="Subtraction_1" data-name="Subtraction 1" d="M-5870,100h-100V0h100V100ZM-5910.79,46.07a6.906,6.906,0,0,0-2.475.464,5.884,5.884,0,0,0-2.159,1.455,7.312,7.312,0,0,0-1.516,2.52,10.46,10.46,0,0,0-.569,3.63,11.469,11.469,0,0,0,.449,3.254,7.559,7.559,0,0,0,1.35,2.625,6.412,6.412,0,0,0,2.265,1.756,7.445,7.445,0,0,0,3.2.644,6.854,6.854,0,0,0,2.79-.584,4.078,4.078,0,0,0,2.009-1.936h.06V62h3.241V40.581h-3.421V48.5h-.06a4.252,4.252,0,0,0-.976-1.1,5.723,5.723,0,0,0-1.275-.766,6.533,6.533,0,0,0-1.44-.434A8.318,8.318,0,0,0-5910.79,46.07Zm-17.581,7.74h0l5.341,8.188h4.559l-7.59-11.1,7.081-10.319h-4.2l-5.069,7.559-4.86-7.559h-4.471L-5930.5,50.9l-7.59,11.1h4.291l5.427-8.188Zm18.571,5.909a3.92,3.92,0,0,1-1.921-.449,3.973,3.973,0,0,1-1.335-1.2,5.369,5.369,0,0,1-.779-1.71,7.594,7.594,0,0,1-.255-1.951,9.433,9.433,0,0,1,.225-2.054,5.4,5.4,0,0,1,.75-1.8,4.181,4.181,0,0,1,1.35-1.29,3.9,3.9,0,0,1,2.026-.494,3.82,3.82,0,0,1,3.134,1.44,6.3,6.3,0,0,1,1.155,4.02,7.935,7.935,0,0,1-.255,2,5.714,5.714,0,0,1-.78,1.754,4.1,4.1,0,0,1-1.35,1.26A3.863,3.863,0,0,1-5909.8,59.72Z" transform="translate(5970)" fill="#77ffda"/>
</svg>
