<svg xmlns="http://www.w3.org/2000/svg" width="100.001" height="100.002" viewBox="0 0 100.001 100.002">
  <path id="Subtraction_6" data-name="Subtraction 6" d="M-5870,100h-100V0h100V100Zm-37.911-45.141h0a7.968,7.968,0,0,0,.751,3.434,6.776,6.776,0,0,0,1.919,2.385,8.111,8.111,0,0,0,2.821,1.38,12.9,12.9,0,0,0,3.449.449,13.121,13.121,0,0,0,3.121-.375,8.442,8.442,0,0,0,2.729-1.185,6.265,6.265,0,0,0,1.935-2.084,6.1,6.1,0,0,0,.735-3.076,5.764,5.764,0,0,0-.256-1.68,5.39,5.39,0,0,0-.779-1.575,5.79,5.79,0,0,0-1.305-1.3,6.265,6.265,0,0,0-1.831-.9c-.214-.061-.631-.176-1.4-.375l-1.994-.526c-.725-.192-1.329-.353-1.844-.494s-.861-.234-.946-.255a4.591,4.591,0,0,1-1.846-.975,2.305,2.305,0,0,1-.7-1.784,2.316,2.316,0,0,1,.375-1.35,2.762,2.762,0,0,1,.945-.856,4.324,4.324,0,0,1,1.26-.449,7.066,7.066,0,0,1,1.35-.136,5.622,5.622,0,0,1,3.209.856,3.634,3.634,0,0,1,1.412,2.925h3.749a6.373,6.373,0,0,0-.659-2.955,6.445,6.445,0,0,0-1.786-2.146,7.841,7.841,0,0,0-2.61-1.305,11.291,11.291,0,0,0-3.165-.434,11.14,11.14,0,0,0-2.85.375,7.89,7.89,0,0,0-2.52,1.155,6.03,6.03,0,0,0-1.785,1.966,5.593,5.593,0,0,0-.676,2.8,6.157,6.157,0,0,0,.225,1.65,4.57,4.57,0,0,0,.766,1.53,5.472,5.472,0,0,0,1.455,1.3,8.013,8.013,0,0,0,2.3.945c1.467.4,2.724.725,3.734.975a25.492,25.492,0,0,1,2.655.8,3.169,3.169,0,0,1,1.215.824,2.565,2.565,0,0,1,.556,1.816,3.1,3.1,0,0,1-.24,1.184,2.664,2.664,0,0,1-.781,1.035,4.277,4.277,0,0,1-1.41.736,6.822,6.822,0,0,1-2.1.285,8.411,8.411,0,0,1-2.114-.255,5.014,5.014,0,0,1-1.725-.811,3.812,3.812,0,0,1-1.171-1.425,4.83,4.83,0,0,1-.419-2.1Zm-19.44,0h0a7.993,7.993,0,0,0,.75,3.434,6.775,6.775,0,0,0,1.919,2.385,8.11,8.11,0,0,0,2.821,1.38,12.908,12.908,0,0,0,3.449.449,13.111,13.111,0,0,0,3.121-.375,8.445,8.445,0,0,0,2.73-1.185,6.255,6.255,0,0,0,1.934-2.084,6.092,6.092,0,0,0,.736-3.076,5.818,5.818,0,0,0-.255-1.68,5.448,5.448,0,0,0-.78-1.575,5.791,5.791,0,0,0-1.305-1.3,6.279,6.279,0,0,0-1.83-.9c-.215-.061-.632-.176-1.4-.375l-1.995-.526c-.666-.176-1.287-.343-1.844-.494s-.866-.235-.945-.255a4.6,4.6,0,0,1-1.846-.975,2.308,2.308,0,0,1-.7-1.784,2.314,2.314,0,0,1,.375-1.35,2.766,2.766,0,0,1,.945-.856,4.321,4.321,0,0,1,1.26-.449,7.067,7.067,0,0,1,1.35-.136,5.625,5.625,0,0,1,3.209.856,3.626,3.626,0,0,1,1.41,2.925h3.75a6.359,6.359,0,0,0-.66-2.955,6.445,6.445,0,0,0-1.786-2.146,7.84,7.84,0,0,0-2.61-1.305,11.281,11.281,0,0,0-3.165-.434,11.14,11.14,0,0,0-2.85.375,7.881,7.881,0,0,0-2.52,1.155,6.055,6.055,0,0,0-1.786,1.966,5.6,5.6,0,0,0-.674,2.8,6.189,6.189,0,0,0,.225,1.65,4.578,4.578,0,0,0,.766,1.53,5.475,5.475,0,0,0,1.455,1.3,8,8,0,0,0,2.3.945c1.51.408,2.731.727,3.735.975a25.562,25.562,0,0,1,2.654.8,3.172,3.172,0,0,1,1.216.824,2.577,2.577,0,0,1,.555,1.816,3.125,3.125,0,0,1-.24,1.184,2.662,2.662,0,0,1-.781,1.035,4.277,4.277,0,0,1-1.41.736,6.822,6.822,0,0,1-2.1.285,8.411,8.411,0,0,1-2.114-.255,5.015,5.015,0,0,1-1.725-.811,3.823,3.823,0,0,1-1.171-1.425,4.824,4.824,0,0,1-.42-2.1ZM-5938.6,40.07a9.987,9.987,0,0,0-4.3.9,9.658,9.658,0,0,0-3.226,2.43,10.834,10.834,0,0,0-2.024,3.569,13.182,13.182,0,0,0-.706,4.321,13.271,13.271,0,0,0,.706,4.349,10.843,10.843,0,0,0,2.024,3.57,9.5,9.5,0,0,0,3.226,2.415,10.157,10.157,0,0,0,4.3.884,9.827,9.827,0,0,0,3.57-.629,8.465,8.465,0,0,0,2.82-1.784,8.658,8.658,0,0,0,1.9-2.746,10.207,10.207,0,0,0,.826-3.509h-3.66a8.63,8.63,0,0,1-.51,2.189,5.708,5.708,0,0,1-1.08,1.786,4.985,4.985,0,0,1-1.651,1.2,5.361,5.361,0,0,1-2.219.434,6.019,6.019,0,0,1-2.956-.691,5.82,5.82,0,0,1-2.024-1.844,8.353,8.353,0,0,1-1.155-2.625,12.117,12.117,0,0,1-.375-3,12.14,12.14,0,0,1,.375-3,8.353,8.353,0,0,1,1.155-2.625,5.833,5.833,0,0,1,2.024-1.844,6.035,6.035,0,0,1,2.956-.691,6.143,6.143,0,0,1,2.054.316,4.821,4.821,0,0,1,1.545.884,4.755,4.755,0,0,1,1.08,1.35,7.659,7.659,0,0,1,.661,1.711h3.75a8.017,8.017,0,0,0-.93-3.091,7.527,7.527,0,0,0-1.964-2.294,8.786,8.786,0,0,0-2.806-1.44A11.348,11.348,0,0,0-5938.6,40.07Z" transform="translate(5970)" fill="#77ffda"/>
</svg>
