<svg xmlns="http://www.w3.org/2000/svg" width="100.001" height="100.002" viewBox="0 0 100.001 100.002">
  <path id="Subtraction_2" data-name="Subtraction 2" d="M-5870,100h-100V0h100V100Zm-57.451-59.932a10,10,0,0,0-4.3.9,9.683,9.683,0,0,0-3.225,2.43,10.859,10.859,0,0,0-2.025,3.569,13.228,13.228,0,0,0-.7,4.321,13.317,13.317,0,0,0,.7,4.349,10.871,10.871,0,0,0,2.025,3.57,9.527,9.527,0,0,0,3.225,2.415,10.167,10.167,0,0,0,4.3.884,8.52,8.52,0,0,0,3.45-.659,8.958,8.958,0,0,0,3-2.37l.569,2.52h2.4V50.72h-9.12v2.851h5.7a7.938,7.938,0,0,1-.419,2.459,4.959,4.959,0,0,1-1.155,1.876,5.091,5.091,0,0,1-1.875,1.17,6.894,6.894,0,0,1-2.358.377l-.193,0a6.013,6.013,0,0,1-2.955-.691,5.817,5.817,0,0,1-2.024-1.844,8.374,8.374,0,0,1-1.155-2.625,12.14,12.14,0,0,1-.375-3,12.163,12.163,0,0,1,.375-3,8.374,8.374,0,0,1,1.155-2.625,5.825,5.825,0,0,1,2.024-1.844,6.029,6.029,0,0,1,2.955-.691,7.006,7.006,0,0,1,1.951.271,5.482,5.482,0,0,1,1.681.809,4.724,4.724,0,0,1,1.244,1.335,4.731,4.731,0,0,1,.646,1.846h3.66a8.109,8.109,0,0,0-1.021-3.181,7.667,7.667,0,0,0-2.041-2.294,8.863,8.863,0,0,0-2.8-1.381A11.755,11.755,0,0,0-5927.451,40.07Zm18.691,6.42v2.55h2.58v9.15a9.414,9.414,0,0,0,.195,1.71,2.6,2.6,0,0,0,.631,1.245,2.914,2.914,0,0,0,1.29.751,7.624,7.624,0,0,0,2.174.255,9.978,9.978,0,0,0,1.11-.06c.3-.034.616-.067.935-.1l.023,0,.153-.016V59.33a3.625,3.625,0,0,1-.721.1c-.23.01-.466.015-.719.015a2.451,2.451,0,0,1-.9-.135,1,1,0,0,1-.495-.4,1.6,1.6,0,0,1-.209-.661,8.238,8.238,0,0,1-.045-.93V49.04h3.089V46.49h-3.089V41.839h-3.421V46.49Zm-5.58,0V62h3.419V46.49Zm0-5.909V43.82h3.419V40.581Z" transform="translate(5970)" fill="#77ffda"/>
</svg>
