<svg xmlns="http://www.w3.org/2000/svg" width="100.001" height="100.002" viewBox="0 0 100.001 100.002">
  <path id="Subtraction_8" data-name="Subtraction 8" d="M-5870,100h-100V0h100V100Zm-46.03-42.982h0a5.352,5.352,0,0,0,.555,2.385,4.879,4.879,0,0,0,1.44,1.68,6.354,6.354,0,0,0,2.16,1.005,10.615,10.615,0,0,0,2.715.33,11.367,11.367,0,0,0,2.43-.27,7.48,7.48,0,0,0,2.235-.871,5,5,0,0,0,1.635-1.56,4.2,4.2,0,0,0,.629-2.34,3.9,3.9,0,0,0-.435-1.919,3.958,3.958,0,0,0-1.14-1.29,5.972,5.972,0,0,0-1.6-.811c-.605-.2-1.222-.373-1.831-.509-.678-.148-1.287-.275-1.859-.39a11.1,11.1,0,0,1-1.6-.436,3.439,3.439,0,0,1-1.14-.644,1.313,1.313,0,0,1-.435-1.02,1.138,1.138,0,0,1,.3-.826,1.962,1.962,0,0,1,.734-.479,4.039,4.039,0,0,1,.931-.225,7.171,7.171,0,0,1,.855-.06,4.679,4.679,0,0,1,2.024.42,2.14,2.14,0,0,1,1.125,1.65h3.57a5.16,5.16,0,0,0-.736-2.2,4.847,4.847,0,0,0-1.47-1.485,6.242,6.242,0,0,0-1.979-.826,10.086,10.086,0,0,0-2.295-.255,12.314,12.314,0,0,0-2.206.21,6.819,6.819,0,0,0-2.1.734,4.735,4.735,0,0,0-1.561,1.381,3.543,3.543,0,0,0-.615,2.114,4.186,4.186,0,0,0,.42,1.966,3.762,3.762,0,0,0,1.125,1.305,5.989,5.989,0,0,0,1.59.809,17.339,17.339,0,0,0,1.846.511c.64.144,1.255.275,1.83.39a11.252,11.252,0,0,1,1.6.435,3.348,3.348,0,0,1,1.155.676,1.52,1.52,0,0,1,.481,1.08,1.484,1.484,0,0,1-.315,1.064,2.173,2.173,0,0,1-.885.616,4.8,4.8,0,0,1-1.155.285,9.016,9.016,0,0,1-1.1.075,4.511,4.511,0,0,1-2.37-.6,2.59,2.59,0,0,1-1.14-2.1Zm-18.691-16.439V62h3.75v-8.22h5.7a9.212,9.212,0,0,0,3.72-.646,5.778,5.778,0,0,0,2.219-1.635,5.644,5.644,0,0,0,1.065-2.146,9,9,0,0,0,.285-2.144,9.194,9.194,0,0,0-.285-2.16,5.637,5.637,0,0,0-1.065-2.161,5.914,5.914,0,0,0-2.219-1.65,9.023,9.023,0,0,0-3.72-.659Zm9.24,10.139h-5.49V43.64h5.551a6.371,6.371,0,0,1,1.41.15,2.918,2.918,0,0,1,1.17.554,2.8,2.8,0,0,1,.809,1.1,4.4,4.4,0,0,1,.3,1.741,3.731,3.731,0,0,1-.345,1.695,3.02,3.02,0,0,1-.9,1.08,3.708,3.708,0,0,1-1.215.584A4.9,4.9,0,0,1-5925.48,50.72Z" transform="translate(5970)" fill="#77ffda"/>
</svg>
